<svg id="visual" viewBox="0 0 960 540" width="960" height="540" xmlns="http://www.w3.org/2000/svg" xmlns:xlink="http://www.w3.org/1999/xlink" version="1.1"><path d="M0 44L14.5 45C29 46 58 48 87.2 56.2C116.3 64.3 145.7 78.7 174.8 79.5C204 80.3 233 67.7 262 65C291 62.3 320 69.7 349 67.8C378 66 407 55 436.2 55C465.3 55 494.7 66 523.8 72.3C553 78.7 582 80.3 611 78.5C640 76.7 669 71.3 698 63.2C727 55 756 44 785.2 44.8C814.3 45.7 843.7 58.3 872.8 67.3C902 76.3 931 81.7 945.5 84.3L960 87L960 0L945.5 0C931 0 902 0 872.8 0C843.7 0 814.3 0 785.2 0C756 0 727 0 698 0C669 0 640 0 611 0C582 0 553 0 523.8 0C494.7 0 465.3 0 436.2 0C407 0 378 0 349 0C320 0 291 0 262 0C233 0 204 0 174.8 0C145.7 0 116.3 0 87.2 0C58 0 29 0 14.5 0L0 0Z" fill="#6198ff"></path><path d="M0 131L14.5 152.5C29 174 58 217 87.2 229.5C116.3 242 145.7 224 174.8 207.8C204 191.7 233 177.3 262 176.5C291 175.7 320 188.3 349 189.2C378 190 407 179 436.2 185.3C465.3 191.7 494.7 215.3 523.8 215.3C553 215.3 582 191.7 611 193.3C640 195 669 222 698 215.8C727 209.7 756 170.3 785.2 159.7C814.3 149 843.7 167 872.8 171.5C902 176 931 167 945.5 162.5L960 158L960 85L945.5 82.3C931 79.7 902 74.3 872.8 65.3C843.7 56.3 814.3 43.7 785.2 42.8C756 42 727 53 698 61.2C669 69.3 640 74.7 611 76.5C582 78.3 553 76.7 523.8 70.3C494.7 64 465.3 53 436.2 53C407 53 378 64 349 65.8C320 67.7 291 60.3 262 63C233 65.7 204 78.3 174.8 77.5C145.7 76.7 116.3 62.3 87.2 54.2C58 46 29 44 14.5 43L0 42Z" fill="#3c80ff"></path><path d="M0 190L14.5 226.8C29 263.7 58 337.3 87.2 348.2C116.3 359 145.7 307 174.8 290C204 273 233 291 262 291C291 291 320 273 349 274.8C378 276.7 407 298.3 436.2 317.2C465.3 336 494.7 352 523.8 348.3C553 344.7 582 321.3 611 324C640 326.7 669 355.3 698 348.2C727 341 756 298 785.2 283.7C814.3 269.3 843.7 283.7 872.8 287.2C902 290.7 931 283.3 945.5 279.7L960 276L960 156L945.5 160.5C931 165 902 174 872.8 169.5C843.7 165 814.3 147 785.2 157.7C756 168.3 727 207.7 698 213.8C669 220 640 193 611 191.3C582 189.7 553 213.3 523.8 213.3C494.7 213.3 465.3 189.7 436.2 183.3C407 177 378 188 349 187.2C320 186.3 291 173.7 262 174.5C233 175.3 204 189.7 174.8 205.8C145.7 222 116.3 240 87.2 227.5C58 215 29 172 14.5 150.5L0 129Z" fill="#0066ff"></path><path d="M0 422L14.5 435.5C29 449 58 476 87.2 483.2C116.3 490.3 145.7 477.7 174.8 474.2C204 470.7 233 476.3 262 472.8C291 469.3 320 456.7 349 460.2C378 463.7 407 483.3 436.2 491.3C465.3 499.3 494.7 495.7 523.8 490.3C553 485 582 478 611 474.5C640 471 669 471 698 465.5C727 460 756 449 785.2 442.7C814.3 436.3 843.7 434.7 872.8 444.7C902 454.7 931 476.3 945.5 487.2L960 498L960 274L945.5 277.7C931 281.3 902 288.7 872.8 285.2C843.7 281.7 814.3 267.3 785.2 281.7C756 296 727 339 698 346.2C669 353.3 640 324.7 611 322C582 319.3 553 342.7 523.8 346.3C494.7 350 465.3 334 436.2 315.2C407 296.3 378 274.7 349 272.8C320 271 291 289 262 289C233 289 204 271 174.8 288C145.7 305 116.3 357 87.2 346.2C58 335.3 29 261.7 14.5 224.8L0 188Z" fill="#0059dd"></path><path d="M0 541L14.5 541C29 541 58 541 87.2 541C116.3 541 145.7 541 174.8 541C204 541 233 541 262 541C291 541 320 541 349 541C378 541 407 541 436.2 541C465.3 541 494.7 541 523.8 541C553 541 582 541 611 541C640 541 669 541 698 541C727 541 756 541 785.2 541C814.3 541 843.7 541 872.8 541C902 541 931 541 945.5 541L960 541L960 496L945.5 485.2C931 474.3 902 452.7 872.8 442.7C843.7 432.7 814.3 434.3 785.2 440.7C756 447 727 458 698 463.5C669 469 640 469 611 472.5C582 476 553 483 523.8 488.3C494.7 493.7 465.3 497.3 436.2 489.3C407 481.3 378 461.7 349 458.2C320 454.7 291 467.3 262 470.8C233 474.3 204 468.7 174.8 472.2C145.7 475.7 116.3 488.3 87.2 481.2C58 474 29 447 14.5 433.5L0 420Z" fill="#004cbb"></path></svg>