<svg id="visual" viewBox="0 0 900 600" width="900" height="600" xmlns="http://www.w3.org/2000/svg" xmlns:xlink="http://www.w3.org/1999/xlink" version="1.1"><rect x="0" y="0" width="900" height="600" fill="#eae0e0"></rect><defs><linearGradient id="grad1_0" x1="33.3%" y1="100%" x2="100%" y2="0%"><stop offset="20%" stop-color="#eae0e0" stop-opacity="1"></stop><stop offset="80%" stop-color="#eae0e0" stop-opacity="1"></stop></linearGradient></defs><defs><linearGradient id="grad2_0" x1="0%" y1="100%" x2="66.7%" y2="0%"><stop offset="20%" stop-color="#eae0e0" stop-opacity="1"></stop><stop offset="80%" stop-color="#eae0e0" stop-opacity="1"></stop></linearGradient></defs><g transform="translate(900, 600)"><path d="M-351.5 0C-338.4 -42.5 -325.3 -85 -310.4 -128.6C-295.6 -172.2 -279 -216.8 -248.6 -248.6C-218.1 -280.3 -173.9 -299.1 -130.1 -314.1C-86.4 -329.1 -43.2 -340.3 0 -351.5L0 0Z" fill="#FBAE3C"></path></g><g transform="translate(0, 0)"><path d="M351.5 0C347.2 46.9 342.8 93.9 324.8 134.5C306.7 175.2 275 209.5 241.8 241.8C208.7 274.2 174.1 304.5 133.6 322.4C93 340.4 46.5 346 0 351.5L0 0Z" fill="#FBAE3C"></path></g></svg>