<svg id="visual" viewBox="0 0 960 540" width="960" height="540" xmlns="http://www.w3.org/2000/svg" xmlns:xlink="http://www.w3.org/1999/xlink" version="1.1"><path d="M0 66L14.5 64.2C29 62.3 58 58.7 87.2 55C116.3 51.3 145.7 47.7 174.8 45C204 42.3 233 40.7 262 46.2C291 51.7 320 64.3 349 68.8C378 73.3 407 69.7 436.2 68.7C465.3 67.7 494.7 69.3 523.8 63.8C553 58.3 582 45.7 611 38.5C640 31.3 669 29.7 698 35.2C727 40.7 756 53.3 785.2 58.7C814.3 64 843.7 62 872.8 63.8C902 65.7 931 71.3 945.5 74.2L960 77L960 0L945.5 0C931 0 902 0 872.8 0C843.7 0 814.3 0 785.2 0C756 0 727 0 698 0C669 0 640 0 611 0C582 0 553 0 523.8 0C494.7 0 465.3 0 436.2 0C407 0 378 0 349 0C320 0 291 0 262 0C233 0 204 0 174.8 0C145.7 0 116.3 0 87.2 0C58 0 29 0 14.5 0L0 0Z" fill="#89a1c9"></path><path d="M0 239L14.5 227.2C29 215.3 58 191.7 87.2 195.2C116.3 198.7 145.7 229.3 174.8 240.2C204 251 233 242 262 232.2C291 222.3 320 211.7 349 213.5C378 215.3 407 229.7 436.2 239.5C465.3 249.3 494.7 254.7 523.8 237.5C553 220.3 582 180.7 611 174.3C640 168 669 195 698 214.8C727 234.7 756 247.3 785.2 251C814.3 254.7 843.7 249.3 872.8 235.8C902 222.3 931 200.7 945.5 189.8L960 179L960 75L945.5 72.2C931 69.3 902 63.7 872.8 61.8C843.7 60 814.3 62 785.2 56.7C756 51.3 727 38.7 698 33.2C669 27.7 640 29.3 611 36.5C582 43.7 553 56.3 523.8 61.8C494.7 67.3 465.3 65.7 436.2 66.7C407 67.7 378 71.3 349 66.8C320 62.3 291 49.7 262 44.2C233 38.7 204 40.3 174.8 43C145.7 45.7 116.3 49.3 87.2 53C58 56.7 29 60.3 14.5 62.2L0 64Z" fill="#5479b1"></path><path d="M0 320L14.5 306.5C29 293 58 266 87.2 261.5C116.3 257 145.7 275 174.8 284.8C204 294.7 233 296.3 262 286.3C291 276.3 320 254.7 349 259.2C378 263.7 407 294.3 436.2 306C465.3 317.7 494.7 310.3 523.8 298.7C553 287 582 271 611 272C640 273 669 291 698 301.8C727 312.7 756 316.3 785.2 312.7C814.3 309 843.7 298 872.8 280C902 262 931 237 945.5 224.5L960 212L960 177L945.5 187.8C931 198.7 902 220.3 872.8 233.8C843.7 247.3 814.3 252.7 785.2 249C756 245.3 727 232.7 698 212.8C669 193 640 166 611 172.3C582 178.7 553 218.3 523.8 235.5C494.7 252.7 465.3 247.3 436.2 237.5C407 227.7 378 213.3 349 211.5C320 209.7 291 220.3 262 230.2C233 240 204 249 174.8 238.2C145.7 227.3 116.3 196.7 87.2 193.2C58 189.7 29 213.3 14.5 225.2L0 237Z" fill="#3d5982"></path><path d="M0 390L14.5 390.8C29 391.7 58 393.3 87.2 389.7C116.3 386 145.7 377 174.8 378.8C204 380.7 233 393.3 262 393.3C291 393.3 320 380.7 349 384.3C378 388 407 408 436.2 407.2C465.3 406.3 494.7 384.7 523.8 385.5C553 386.3 582 409.7 611 411.5C640 413.3 669 393.7 698 392.8C727 392 756 410 785.2 419C814.3 428 843.7 428 872.8 417.2C902 406.3 931 384.7 945.5 373.8L960 363L960 210L945.5 222.5C931 235 902 260 872.8 278C843.7 296 814.3 307 785.2 310.7C756 314.3 727 310.7 698 299.8C669 289 640 271 611 270C582 269 553 285 523.8 296.7C494.7 308.3 465.3 315.7 436.2 304C407 292.3 378 261.7 349 257.2C320 252.7 291 274.3 262 284.3C233 294.3 204 292.7 174.8 282.8C145.7 273 116.3 255 87.2 259.5C58 264 29 291 14.5 304.5L0 318Z" fill="#3d5982"></path><path d="M0 444L14.5 447.5C29 451 58 458 87.2 456.2C116.3 454.3 145.7 443.7 174.8 443.7C204 443.7 233 454.3 262 451.7C291 449 320 433 349 437.5C378 442 407 467 436.2 469.7C465.3 472.3 494.7 452.7 523.8 447.3C553 442 582 451 611 452.8C640 454.7 669 449.3 698 452C727 454.7 756 465.3 785.2 467.2C814.3 469 843.7 462 872.8 453C902 444 931 433 945.5 427.5L960 422L960 361L945.5 371.8C931 382.7 902 404.3 872.8 415.2C843.7 426 814.3 426 785.2 417C756 408 727 390 698 390.8C669 391.7 640 411.3 611 409.5C582 407.7 553 384.3 523.8 383.5C494.7 382.7 465.3 404.3 436.2 405.2C407 406 378 386 349 382.3C320 378.7 291 391.3 262 391.3C233 391.3 204 378.7 174.8 376.8C145.7 375 116.3 384 87.2 387.7C58 391.3 29 389.7 14.5 388.8L0 388Z" fill="#5479b1"></path><path d="M0 541L14.5 541C29 541 58 541 87.2 541C116.3 541 145.7 541 174.8 541C204 541 233 541 262 541C291 541 320 541 349 541C378 541 407 541 436.2 541C465.3 541 494.7 541 523.8 541C553 541 582 541 611 541C640 541 669 541 698 541C727 541 756 541 785.2 541C814.3 541 843.7 541 872.8 541C902 541 931 541 945.5 541L960 541L960 420L945.5 425.5C931 431 902 442 872.8 451C843.7 460 814.3 467 785.2 465.2C756 463.3 727 452.7 698 450C669 447.3 640 452.7 611 450.8C582 449 553 440 523.8 445.3C494.7 450.7 465.3 470.3 436.2 467.7C407 465 378 440 349 435.5C320 431 291 447 262 449.7C233 452.3 204 441.7 174.8 441.7C145.7 441.7 116.3 452.3 87.2 454.2C58 456 29 449 14.5 445.5L0 442Z" fill="#89a1c9"></path></svg>