<svg id="visual" viewBox="0 0 960 540" width="960" height="540" xmlns="http://www.w3.org/2000/svg" xmlns:xlink="http://www.w3.org/1999/xlink" version="1.1"><rect x="0" y="0" width="960" height="540" fill="#001220"></rect><path d="M0 409L8 410.3C16 411.7 32 414.3 48 404C64 393.7 80 370.3 96 369C112 367.7 128 388.3 144 405.2C160 422 176 435 192 436.8C208 438.7 224 429.3 240 420.2C256 411 272 402 288 401.2C304 400.3 320 407.7 336 416.8C352 426 368 437 384 436.7C400 436.3 416 424.7 432 406.2C448 387.7 464 362.3 480 353.2C496 344 512 351 528 367.3C544 383.7 560 409.3 576 425.2C592 441 608 447 624 447.7C640 448.3 656 443.7 672 437.8C688 432 704 425 720 413.2C736 401.3 752 384.7 768 386.5C784 388.3 800 408.7 816 420.2C832 431.7 848 434.3 864 426.8C880 419.3 896 401.7 912 386.8C928 372 944 360 952 354L960 348L960 541L952 541C944 541 928 541 912 541C896 541 880 541 864 541C848 541 832 541 816 541C800 541 784 541 768 541C752 541 736 541 720 541C704 541 688 541 672 541C656 541 640 541 624 541C608 541 592 541 576 541C560 541 544 541 528 541C512 541 496 541 480 541C464 541 448 541 432 541C416 541 400 541 384 541C368 541 352 541 336 541C320 541 304 541 288 541C272 541 256 541 240 541C224 541 208 541 192 541C176 541 160 541 144 541C128 541 112 541 96 541C80 541 64 541 48 541C32 541 16 541 8 541L0 541Z" fill="#fa7268"></path><path d="M0 397L8 408.7C16 420.3 32 443.7 48 444.3C64 445 80 423 96 416.3C112 409.7 128 418.3 144 421.5C160 424.7 176 422.3 192 428.3C208 434.3 224 448.7 240 442.5C256 436.3 272 409.7 288 398.3C304 387 320 391 336 403.3C352 415.7 368 436.3 384 445C400 453.7 416 450.3 432 449.8C448 449.3 464 451.7 480 453.8C496 456 512 458 528 460.8C544 463.7 560 467.3 576 457.8C592 448.3 608 425.7 624 421C640 416.3 656 429.7 672 429.8C688 430 704 417 720 413.7C736 410.3 752 416.7 768 423.5C784 430.3 800 437.7 816 440.8C832 444 848 443 864 444.7C880 446.3 896 450.7 912 439.7C928 428.7 944 402.3 952 389.2L960 376L960 541L952 541C944 541 928 541 912 541C896 541 880 541 864 541C848 541 832 541 816 541C800 541 784 541 768 541C752 541 736 541 720 541C704 541 688 541 672 541C656 541 640 541 624 541C608 541 592 541 576 541C560 541 544 541 528 541C512 541 496 541 480 541C464 541 448 541 432 541C416 541 400 541 384 541C368 541 352 541 336 541C320 541 304 541 288 541C272 541 256 541 240 541C224 541 208 541 192 541C176 541 160 541 144 541C128 541 112 541 96 541C80 541 64 541 48 541C32 541 16 541 8 541L0 541Z" fill="#ef5f67"></path><path d="M0 412L8 414.5C16 417 32 422 48 433.8C64 445.7 80 464.3 96 470.5C112 476.7 128 470.3 144 459.8C160 449.3 176 434.7 192 426.3C208 418 224 416 240 426C256 436 272 458 288 463.7C304 469.3 320 458.7 336 460C352 461.3 368 474.7 384 480.3C400 486 416 484 432 470.2C448 456.3 464 430.7 480 421.2C496 411.7 512 418.3 528 428.3C544 438.3 560 451.7 576 453.2C592 454.7 608 444.3 624 439C640 433.7 656 433.3 672 436.5C688 439.7 704 446.3 720 444.5C736 442.7 752 432.3 768 429.2C784 426 800 430 816 438C832 446 848 458 864 460.2C880 462.3 896 454.7 912 450.8C928 447 944 447 952 447L960 447L960 541L952 541C944 541 928 541 912 541C896 541 880 541 864 541C848 541 832 541 816 541C800 541 784 541 768 541C752 541 736 541 720 541C704 541 688 541 672 541C656 541 640 541 624 541C608 541 592 541 576 541C560 541 544 541 528 541C512 541 496 541 480 541C464 541 448 541 432 541C416 541 400 541 384 541C368 541 352 541 336 541C320 541 304 541 288 541C272 541 256 541 240 541C224 541 208 541 192 541C176 541 160 541 144 541C128 541 112 541 96 541C80 541 64 541 48 541C32 541 16 541 8 541L0 541Z" fill="#e34c67"></path><path d="M0 493L8 491C16 489 32 485 48 486.7C64 488.3 80 495.7 96 495.7C112 495.7 128 488.3 144 482.7C160 477 176 473 192 467.2C208 461.3 224 453.7 240 450C256 446.3 272 446.7 288 448.5C304 450.3 320 453.7 336 458.7C352 463.7 368 470.3 384 468C400 465.7 416 454.3 432 451.7C448 449 464 455 480 460C496 465 512 469 528 467.8C544 466.7 560 460.3 576 460.2C592 460 608 466 624 471.5C640 477 656 482 672 477.8C688 473.7 704 460.3 720 457.7C736 455 752 463 768 463.2C784 463.3 800 455.7 816 450.8C832 446 848 444 864 444.7C880 445.3 896 448.7 912 458C928 467.3 944 482.7 952 490.3L960 498L960 541L952 541C944 541 928 541 912 541C896 541 880 541 864 541C848 541 832 541 816 541C800 541 784 541 768 541C752 541 736 541 720 541C704 541 688 541 672 541C656 541 640 541 624 541C608 541 592 541 576 541C560 541 544 541 528 541C512 541 496 541 480 541C464 541 448 541 432 541C416 541 400 541 384 541C368 541 352 541 336 541C320 541 304 541 288 541C272 541 256 541 240 541C224 541 208 541 192 541C176 541 160 541 144 541C128 541 112 541 96 541C80 541 64 541 48 541C32 541 16 541 8 541L0 541Z" fill="#d53867"></path><path d="M0 510L8 504.7C16 499.3 32 488.7 48 484.7C64 480.7 80 483.3 96 485.2C112 487 128 488 144 488C160 488 176 487 192 489.2C208 491.3 224 496.7 240 501.3C256 506 272 510 288 508.7C304 507.3 320 500.7 336 495.7C352 490.7 368 487.3 384 490.2C400 493 416 502 432 500C448 498 464 485 480 478.7C496 472.3 512 472.7 528 476.3C544 480 560 487 576 493.3C592 499.7 608 505.3 624 505.2C640 505 656 499 672 497.8C688 496.7 704 500.3 720 497.5C736 494.7 752 485.3 768 486C784 486.7 800 497.3 816 503.3C832 509.3 848 510.7 864 511.8C880 513 896 514 912 514.2C928 514.3 944 513.7 952 513.3L960 513L960 541L952 541C944 541 928 541 912 541C896 541 880 541 864 541C848 541 832 541 816 541C800 541 784 541 768 541C752 541 736 541 720 541C704 541 688 541 672 541C656 541 640 541 624 541C608 541 592 541 576 541C560 541 544 541 528 541C512 541 496 541 480 541C464 541 448 541 432 541C416 541 400 541 384 541C368 541 352 541 336 541C320 541 304 541 288 541C272 541 256 541 240 541C224 541 208 541 192 541C176 541 160 541 144 541C128 541 112 541 96 541C80 541 64 541 48 541C32 541 16 541 8 541L0 541Z" fill="#c62368"></path></svg>